<?xml version="1.0" encoding="utf-8"?>
<!-- Generator: Adobe Illustrator 27.5.0, SVG Export Plug-In . SVG Version: 6.00 Build 0)  -->
<svg version="1.1" xmlns="http://www.w3.org/2000/svg" xmlns:xlink="http://www.w3.org/1999/xlink" x="0px" y="0px"
	 viewBox="0 0 500 500" style="enable-background:new 0 0 500 500;" xml:space="preserve">
<g id="Background_Complete">
	<g>
		<rect y="382.398" style="fill:#EBEBEB;" width="500" height="0.25"/>
		<rect x="324.562" y="389.208" style="fill:#EBEBEB;" width="33.122" height="0.25"/>
		<rect x="428.574" y="391.397" style="fill:#EBEBEB;" width="8.693" height="0.25"/>
		<rect x="358.685" y="398.494" style="fill:#EBEBEB;" width="19.192" height="0.25"/>
		<rect x="206.807" y="395.111" style="fill:#EBEBEB;" width="43.193" height="0.25"/>
		<rect x="191.57" y="395.111" style="fill:#EBEBEB;" width="6.333" height="0.25"/>
		<rect x="77.312" y="390.888" style="fill:#EBEBEB;" width="93.676" height="0.25"/>
		<path style="fill:#EBEBEB;" d="M237.014,337.8H43.915c-3.147,0-5.708-2.561-5.708-5.708V60.66c0-3.147,2.561-5.708,5.708-5.708
			h193.099c3.146,0,5.707,2.561,5.707,5.708v271.432C242.721,335.239,240.16,337.8,237.014,337.8z M43.915,55.203
			c-3.01,0-5.458,2.448-5.458,5.458v271.432c0,3.01,2.448,5.458,5.458,5.458h193.099c3.009,0,5.457-2.448,5.457-5.458V60.66
			c0-3.009-2.448-5.458-5.457-5.458H43.915z"/>
		<path style="fill:#EBEBEB;" d="M453.31,337.8H260.212c-3.147,0-5.707-2.561-5.707-5.708V60.66c0-3.147,2.561-5.708,5.707-5.708
			H453.31c3.148,0,5.708,2.561,5.708,5.708v271.432C459.019,335.239,456.458,337.8,453.31,337.8z M260.212,55.203
			c-3.009,0-5.457,2.448-5.457,5.458v271.432c0,3.01,2.448,5.458,5.457,5.458H453.31c3.01,0,5.458-2.448,5.458-5.458V60.66
			c0-3.009-2.448-5.458-5.458-5.458H260.212z"/>
	</g>
	<g>
		<g>
			<path style="fill:#E6E6E6;" d="M117.297,307.731c-5.217-1.771-9.015-6.809-5.695-11.97c5.494-8.539-8.254-10.357-4.395-24.65
				c5.447-20.178,22.33-2.688,26.529-22.057c3.055-14.092,26.722-23.324,27.647-4.772c1.013,20.314,11.195,7.046,13.456,29.628
				c1.564,15.615-20.659,17.889-14.027,22.774c4.844,3.568,7.71,9.778,0.947,14.03c-9.209,5.788-0.517,10.309-6.777,14.348
				c-6.174,3.983-7.283-2.4-17.005,0.735c-8.693,2.803-16.058-5.787-14.327-11.157C125.266,309.628,122.549,309.514,117.297,307.731
				z"/>
			<g>
				<path style="fill:#F0F0F0;" d="M167.54,317.015c0,0-0.715,65.383-28.116,65.383c-27.401,0-28.116-65.383-28.116-65.383H167.54z"
					/>
			</g>
		</g>
		<g>
			<g>
				
					<rect x="280.736" y="83.902" transform="matrix(-1 -1.224647e-16 1.224647e-16 -1 717.207 311.9352)" style="fill:#E6E6E6;" width="155.736" height="144.13"/>
				
					<rect x="276.994" y="83.902" transform="matrix(-1 -1.224647e-16 1.224647e-16 -1 711.7171 311.9352)" style="fill:#F0F0F0;" width="157.729" height="144.13"/>
				
					<rect x="289.677" y="82.341" transform="matrix(-1.836970e-16 1 -1 -1.836970e-16 511.8261 -199.8909)" style="fill:#FAFAFA;" width="132.362" height="147.253"/>
				<polygon style="fill:#FFFFFF;" points="343.421,222.149 369.428,89.786 403.52,89.786 377.513,222.149 				"/>
				<polygon style="fill:#FFFFFF;" points="382.819,222.149 408.826,89.786 424.222,89.786 398.215,222.149 				"/>
				<polygon style="fill:#FFFFFF;" points="300.789,222.149 326.796,89.786 332.448,89.786 306.441,222.149 				"/>
				
					<rect x="216.384" y="155.635" transform="matrix(-1.836970e-16 1 -1 -1.836970e-16 438.5324 -126.5972)" style="fill:#E6E6E6;" width="132.362" height="0.665"/>
			</g>
			<g>
				<path style="opacity:0.7;fill:#E6E6E6;" d="M440.403,83.671v101.168h-15.111c0,0-27.15-61.765-33.32-98.195
					c-0.626-3.699,2.206-7.084,5.958-7.084h38.361C438.562,79.559,440.403,81.4,440.403,83.671z"/>
				<path style="opacity:0.7;fill:#E6E6E6;" d="M440.403,242.116V189.45h-15.111c0,0-9.407,31.017-12.962,52.667H440.403z"/>
				<path style="fill:#E0E0E0;" d="M425.736,189.45h14.111c0.836,0,1.514-0.678,1.514-1.514v-1.583c0-0.836-0.678-1.514-1.514-1.514
					h-14.111c-0.836,0-1.514,0.678-1.514,1.514v1.583C424.222,188.772,424.9,189.45,425.736,189.45z"/>
			</g>
			<g>
				<path style="opacity:0.7;fill:#E6E6E6;" d="M272.715,83.671v101.168h15.111c0,0,27.15-61.765,33.32-98.195
					c0.626-3.699-2.206-7.084-5.958-7.084h-38.361C274.556,79.559,272.715,81.4,272.715,83.671z"/>
				<path style="opacity:0.7;fill:#E6E6E6;" d="M272.715,242.116V189.45h15.111c0,0,9.407,31.017,12.962,52.667H272.715z"/>
				<path style="fill:#E0E0E0;" d="M287.382,189.45h-14.111c-0.836,0-1.514-0.678-1.514-1.514v-1.583
					c0-0.836,0.678-1.514,1.514-1.514h14.111c0.836,0,1.514,0.678,1.514,1.514v1.583C288.896,188.772,288.218,189.45,287.382,189.45
					z"/>
			</g>
		</g>
		<g>
			
				<rect x="223.134" y="284.333" transform="matrix(-1 -1.224647e-16 1.224647e-16 -1 484.0679 666.7317)" style="fill:#E6E6E6;" width="37.8" height="98.065"/>
			<polygon style="fill:#F5F5F5;" points="233.228,382.398 223.134,382.398 223.134,365.483 243.811,365.483 			"/>
			
				<rect x="403.962" y="284.333" transform="matrix(-1 -1.224647e-16 1.224647e-16 -1 845.7233 666.7317)" style="fill:#E6E6E6;" width="37.8" height="98.065"/>
			
				<rect x="223.134" y="284.333" transform="matrix(-1 -1.224647e-16 1.224647e-16 -1 635.9046 660.9093)" style="fill:#F5F5F5;" width="189.637" height="92.243"/>
			
				<rect x="230.964" y="292.897" transform="matrix(-1 -1.224647e-16 1.224647e-16 -1 635.9046 605.1232)" style="fill:#F0F0F0;" width="173.976" height="19.33"/>
			<polygon style="fill:#F5F5F5;" points="402.677,382.398 412.771,382.398 412.771,365.483 392.094,365.483 			"/>
			
				<rect x="230.964" y="320.79" transform="matrix(-1 -1.224647e-16 1.224647e-16 -1 635.9046 660.9094)" style="fill:#F0F0F0;" width="173.976" height="19.33"/>
			
				<rect x="230.964" y="348.683" transform="matrix(-1 -1.224647e-16 1.224647e-16 -1 635.9046 716.6955)" style="fill:#F0F0F0;" width="173.976" height="19.33"/>
		</g>
		<g>
			<g>
				
					<rect x="134.51" y="111.895" transform="matrix(-1 -1.224647e-16 1.224647e-16 -1 350.187 311.9353)" style="fill:#E6E6E6;" width="81.167" height="88.146"/>
				
					<rect x="127.64" y="111.895" transform="matrix(-1 -1.224647e-16 1.224647e-16 -1 341.3692 311.9353)" style="fill:#F5F5F5;" width="86.09" height="88.146"/>
				
					<rect x="132.101" y="118.412" transform="matrix(-1.836970e-16 1 -1 -1.836970e-16 326.6523 -14.717)" style="fill:#FFFFFF;" width="77.168" height="75.112"/>
				<path style="fill:#F5F5F5;" d="M195.02,166.156L195.02,166.156c0-11.254-9.123-20.376-20.376-20.376H146.35v0
					c0,11.254,9.123,20.376,20.376,20.376H195.02z"/>
			</g>
			<g>
				<g>
					
						<rect x="66.345" y="85.917" transform="matrix(-1 -1.224647e-16 1.224647e-16 -1 180.9884 225.458)" style="fill:#E6E6E6;" width="48.298" height="53.625"/>
					
						<rect x="59.474" y="85.917" transform="matrix(-1 -1.224647e-16 1.224647e-16 -1 172.1706 225.458)" style="fill:#F5F5F5;" width="53.222" height="53.625"/>
					
						<rect x="64.762" y="91.607" transform="matrix(-1.836970e-16 1 -1 -1.836970e-16 198.8144 26.6437)" style="fill:#FFFFFF;" width="42.646" height="42.243"/>
				</g>
				
					<rect x="77.259" y="103.902" transform="matrix(0.7071 0.7071 -0.7071 0.7071 104.9252 -27.854)" style="fill:#F5F5F5;" width="17.653" height="17.653"/>
			</g>
		</g>
	</g>
</g>
<g id="Background_Simple" style="display:none;">
	<g style="display:inline;">
		<path style="fill:#407BFF;" d="M146.969,263.737c33.373,37.545,71.133-10.011,107.915,14.513
			c22.223,14.816,24.581,31.934,52.75,36.173c19.602,2.95,39.607-3.175,60.713,0.888c36.084,6.947,79.686,5.079,83.622-42.165
			c1.642-19.709-4.53-45.144-29.31-62.665c-21.09-14.911-43.503-1.799-64.906-12.349c-40.918-20.17-24.306-84.701-79.536-90.958
			c-48.516-5.497-58.845,49.346-108.483,42.545c-37.203-5.097-100.384-25.613-109.975,35.164
			c-4.089,25.91,13.451,41.667,33.718,49.698C121.445,245.663,125.069,239.1,146.969,263.737z"/>
		<path style="opacity:0.9;fill:#FFFFFF;" d="M146.969,263.737c33.373,37.545,71.133-10.011,107.915,14.513
			c22.223,14.816,24.581,31.934,52.75,36.173c19.602,2.95,39.607-3.175,60.713,0.888c36.084,6.947,79.686,5.079,83.622-42.165
			c1.642-19.709-4.53-45.144-29.31-62.665c-21.09-14.911-43.503-1.799-64.906-12.349c-40.918-20.17-24.306-84.701-79.536-90.958
			c-48.516-5.497-58.845,49.346-108.483,42.545c-37.203-5.097-100.384-25.613-109.975,35.164
			c-4.089,25.91,13.451,41.667,33.718,49.698C121.445,245.663,125.069,239.1,146.969,263.737z"/>
	</g>
</g>
<g id="Shadow_1_">
	<ellipse id="_x3C_Path_x3E__63_" style="fill:#F5F5F5;" cx="250" cy="416.238" rx="193.889" ry="11.323"/>
</g>
<g id="Pyramid">
	<g>
		<g>
			<polygon style="fill:#407BFF;" points="95,413.72 405,413.72 374,360.027 126,360.027 			"/>
			<polygon style="opacity:0.4;fill:#FFFFFF;" points="95,413.72 405,413.72 374,360.027 126,360.027 			"/>
		</g>
		<g>
			<polygon style="fill:#407BFF;" points="126,360.027 374,360.027 343,306.333 157,306.333 			"/>
			<polygon style="opacity:0.3;fill:#FFFFFF;" points="126,360.027 374,360.027 343,306.333 157,306.333 			"/>
		</g>
		<g>
			<polygon style="fill:#407BFF;" points="188,252.64 157,306.333 343,306.333 312,252.64 			"/>
			<polygon style="opacity:0.2;fill:#FFFFFF;" points="188,252.64 157,306.333 343,306.333 312,252.64 			"/>
		</g>
		<g>
			<polygon style="fill:#407BFF;" points="281,198.947 219,198.947 188,252.64 312,252.64 			"/>
			<polygon style="opacity:0.1;" points="281,198.947 219,198.947 188,252.64 312,252.64 			"/>
		</g>
	</g>
</g>
<g id="Character_2">
	<g>
		<g>
			<path style="fill:#B55B52;" d="M180.487,121.908c-0.505,0.378-1.198,0.926-1.802,1.423c-0.624,0.51-1.238,1.045-1.841,1.591
				c-1.199,1.103-2.392,2.217-3.51,3.401c-2.199,2.391-4.251,4.914-5.904,7.641c-0.365,0.611-0.958,1.641-0.889,1.492
				c-0.082,0.147-0.164,0.557-0.108,1.106c0.112,1.112,0.612,2.574,1.269,3.986c1.331,2.851,3.207,5.794,5.106,8.54l-2.821,2.71
				c-2.865-2.409-5.385-5.01-7.57-8.248c-1.061-1.641-2.076-3.406-2.64-5.752c-0.266-1.171-0.42-2.56-0.061-4.118
				c0.076-0.384,0.211-0.773,0.368-1.161c0.18-0.463,0.246-0.546,0.361-0.797l0.634-1.296c1.739-3.434,3.981-6.534,6.466-9.372
				c1.262-1.4,2.553-2.774,3.957-4.033c0.7-0.631,1.413-1.248,2.15-1.849c0.75-0.621,1.451-1.146,2.378-1.784L180.487,121.908z"/>
			<path style="fill:#407BFF;" d="M181.16,110.317c-4.921,0.223-12.335,10.123-12.335,10.123l7.914,9.379
				c0,0,10.022-5.386,11.097-12.517C188.372,113.744,186,110.097,181.16,110.317z"/>
			<path style="fill:#B55B52;" d="M171.568,149.93l5.861,5.049l-5.496,1.389c0,0-3.426-1.972-2.423-4.792L171.568,149.93z"/>
			<polygon style="fill:#B55B52;" points="177.468,157.857 174.609,160.633 171.934,156.367 177.43,154.978 			"/>
			<path style="fill:#263238;" d="M218.061,97.678c-0.24,0.516-0.163,1.071,0.174,1.239c0.336,0.168,0.804-0.114,1.045-0.63
				c0.24-0.516,0.163-1.071-0.174-1.239C218.77,96.881,218.302,97.162,218.061,97.678z"/>
			<path style="fill:#263238;" d="M218.944,97.003l1.403,0.261C220.347,97.264,219.261,97.915,218.944,97.003z"/>
			<path style="fill:#A02724;" d="M218.261,98.397c0,0-0.162,2.658,0.3,4.211c-0.976,0.296-1.996-0.572-1.996-0.572L218.261,98.397z
				"/>
			<path style="fill:#263238;" d="M220.357,94.583c-0.052-0.015-0.101-0.041-0.142-0.081c-1.087-1.044-2.289-0.822-2.34-0.811
				c-0.182,0.036-0.359-0.082-0.395-0.263c-0.037-0.182,0.079-0.358,0.26-0.396c0.064-0.013,1.59-0.311,2.94,0.985
				c0.134,0.129,0.138,0.341,0.01,0.475C220.602,94.584,220.473,94.615,220.357,94.583z"/>
			<path style="fill:#B55B52;" d="M198.635,98.154c0.132,4.29-1.702,11.204-5.065,13.398c0,0,2.169,4.633,9.891,6.128
				c8.491,1.645,4.75-3.405,4.75-3.405c-4.453-1.998-3.768-5.394-2.431-8.448L198.635,98.154z"/>
			<path style="fill:#B55B52;" d="M220.598,122.06c0.396,2.182,0.806,4.5,1.28,6.744c0.452,2.262,0.923,4.521,1.454,6.762
				c0.537,2.239,1.075,4.473,1.672,6.682c0.29,1.109,0.618,2.2,0.94,3.294l0.843,2.645c0.126,0.29,0.655,0.868,1.372,1.382
				c0.719,0.523,1.602,1.02,2.546,1.468c1.893,0.908,4.007,1.661,6.161,2.337c2.158,0.687,4.382,1.278,6.63,1.801
				c2.235,0.559,4.537,1.035,6.772,1.491l-0.362,3.895c-4.874-0.074-9.629-0.561-14.473-1.475c-2.416-0.479-4.837-1.079-7.293-2.004
				c-1.227-0.471-2.466-1.025-3.725-1.788c-1.245-0.775-2.581-1.742-3.691-3.476c-0.137-0.21-0.261-0.456-0.384-0.687l-0.169-0.377
				l-0.134-0.324l-0.33-0.856l-0.653-1.715c-0.41-1.147-0.828-2.294-1.202-3.448c-0.778-2.304-1.478-4.622-2.077-6.961
				c-1.246-4.688-2.265-9.328-2.985-14.205L220.598,122.06z"/>
			<g>
				<polygon style="fill:#407BFF;" points="276.23,131.285 236.738,179.081 297.876,189.384 				"/>
			</g>
			<path style="fill:#B55B52;" d="M248.96,157.009l5.615-1.91l0.648,5.236c0,0-5.119,2.74-6.988-0.951L248.96,157.009z"/>
			<polygon style="fill:#B55B52;" points="257.515,156.786 259.372,161.725 255.223,160.336 254.575,155.099 			"/>
			<polygon style="fill:#B55B52;" points="178.632,317.292 185.723,317.814 187.829,301.531 180.738,301.009 			"/>
			<polygon style="fill:#B55B52;" points="133.753,297.654 140.274,300.682 149.004,286.86 142.483,283.833 			"/>
			<path style="fill:#263238;" d="M141.953,299.116l-6.417-4.926c-0.233-0.179-0.544-0.167-0.746,0.029l-4.514,4.368
				c-0.468,0.453-0.387,1.285,0.159,1.689c2.266,1.68,3.442,2.38,6.263,4.546c1.736,1.333,4.138,3.455,6.535,5.295
				c2.345,1.8,4.291-0.363,3.453-1.338c-3.759-4.371-3.477-6.203-4.041-8.59C142.544,299.759,142.294,299.378,141.953,299.116z"/>
			<path style="fill:#263238;" d="M186.166,316.805h-7.97c-0.29,0-0.531,0.201-0.579,0.484l-1.07,6.306
				c-0.111,0.654,0.436,1.273,1.105,1.262c2.78-0.048,4.123-0.211,7.629-0.211c2.156,0,6.611,0.224,9.589,0.224
				c2.913,0,3.212-2.944,1.979-3.211c-5.529-1.196-7.675-2.845-9.508-4.418C187.01,316.957,186.59,316.805,186.166,316.805z"/>
			<g>
				<polygon style="opacity:0.2;" points="187.827,301.535 186.658,310.585 179.648,309.412 180.733,301.013 				"/>
				<polygon style="opacity:0.2;" points="142.479,283.836 149.003,286.865 145.134,292.985 138.753,289.73 				"/>
			</g>
			<path style="fill:#407BFF;" d="M179.164,153.513c5.499,1.063,17.163,3.324,28.444,5.513
				c13.441-39.569,10.224-40.849,10.224-40.849s-2.853-1.589-6.455-2.997c-0.138-0.055-0.266-0.1-0.386-0.145
				c-1.818-0.663-2.202-0.763-4.639-1.471c-4.189-0.99-8.091-1.798-12.916-2.498c-0.31-0.045-0.62-0.091-0.921-0.127
				c-0.875-0.109-1.741-0.2-2.578-0.282c-0.565-0.064-1.129-0.1-1.666-0.136c-0.637-0.036-1.256-0.073-1.837-0.1
				c-3.111-0.154-5.334-0.109-5.334-0.109C182.73,135.005,181.541,142.098,179.164,153.513z"/>
			<path style="opacity:0.2;" d="M212.078,130.217c-1.111,5.567,0.065,10.197,0.836,12.411c2.361-7.735,3.702-13.027,4.428-16.646
				C215.165,125.698,212.84,126.405,212.078,130.217z"/>
			<path style="fill:#407BFF;" d="M217.59,118.045c4.745,3.097,7.769,9.987,8.572,13.935l-11.009,8.974
				c0,0-5.998-13.392-4.029-16.815C213.174,120.575,215.796,116.874,217.59,118.045z"/>
			<path style="fill:#B55B52;" d="M201.502,87.651c-2.565,6.532-3.79,9.237-2.113,14.086c2.522,7.294,11.069,9.27,15.525,3.698
				c4.011-5.015,7.532-14.854,2.52-20.47C212.497,79.433,204.067,81.119,201.502,87.651z"/>
			<path style="fill:#B55B52;" d="M213.588,94.802c-0.355,1.225-0.184,2.68,0.244,3.82c0.643,1.714,1.976,1.681,2.644,0.46
				c0.601-1.1,0.991-3.317-0.062-4.679C215.377,93.061,213.994,93.401,213.588,94.802z"/>
			<path style="fill:#263238;" d="M202.315,76.5c-2.792-0.208-6.828,0.282-9.236,5.137c-2.408,4.855-4.722,11.252-8.167,9.918
				c0.653,0.986,2.695,2.111,3.403,1.653c-2.333,2.333-2.792,4.226-3.292,8.958c-0.625,5.916-3.889,4.611-3.889,4.611
				s3.812,6.188,16.325,8.383c11.12,1.95,16.275-0.54,17.775-2.623c-1.542-0.5-3.949-5.952-1.837-9.121
				c2.111-3.169,5.768-11.75,5.164-15.208c1.345,2.146,1.421,5.542,2.546,2.125c1.125-3.417,1.639-7-2.546-11.25
				C214.826,75.29,203.94,73.417,202.315,76.5z"/>
			<path style="fill:#263238;" d="M200.099,157.569c0,0-13.857,46.403-20.626,73.128c-7.141,28.197-31.517,61.342-31.517,61.342
				l-8.959-4.995c0,0,14.766-31.631,21.684-57.944c14.044-53.413,7.288-64.728,18.485-75.585L200.099,157.569z"/>
			<polygon style="fill:#407BFF;" points="148.843,292.881 137.658,286.644 139.292,283.34 152.476,289.406 			"/>
			<path style="opacity:0.2;" d="M193.592,167.453c-9.09,7.011-9.699,33.729-9.491,45.799c4.623-16.874,10.09-35.646,13.287-46.507
				C196.516,166.009,195.262,166.164,193.592,167.453z"/>
			<path style="fill:#407BFF;" d="M144.741,302.07c-0.079,0.032-0.163,0.052-0.252,0.06c-0.9,0.082-2.066-1.155-2.681-1.899
				c-0.043-0.052-0.051-0.125-0.019-0.185c0.032-0.06,0.096-0.095,0.163-0.089c0.293,0.025,2.874,0.271,3.3,1.077
				c0.095,0.179,0.088,0.376-0.02,0.569C145.103,301.834,144.938,301.99,144.741,302.07z M142.34,300.336
				c0.854,0.964,1.632,1.503,2.118,1.459c0.199-0.018,0.357-0.135,0.481-0.357c0.067-0.12,0.044-0.195,0.017-0.247
				C144.731,300.767,143.371,300.465,142.34,300.336z"/>
			<path style="fill:#263238;" d="M207.181,159.024c0,0,1.771,56.143-2.196,77.291c-4.126,21.996-16.691,72.033-16.691,72.033
				l-10.228-1.32c0,0,6.468-50.546,9.214-72.401c2.994-23.826-0.929-79.636-0.929-79.636L207.181,159.024z"/>
			<polygon style="fill:#407BFF;" points="190.468,308.931 175.891,307.049 176.072,303.586 191.93,304.277 			"/>
			<path style="fill:#407BFF;" d="M144.123,299.93c-0.735,0.299-1.716,0.436-2.211,0.36c-0.059-0.009-0.109-0.048-0.13-0.104
				c-0.022-0.055-0.014-0.118,0.022-0.165c0.051-0.067,1.279-1.645,2.3-1.717c0.28-0.02,0.523,0.068,0.722,0.261
				c0.309,0.302,0.238,0.582,0.168,0.722C144.867,299.547,144.533,299.764,144.123,299.93z M142.275,299.979
				c0.862-0.003,2.201-0.402,2.419-0.84c0.036-0.073,0.057-0.176-0.103-0.331c-0.128-0.125-0.279-0.18-0.462-0.167
				C143.517,298.684,142.71,299.476,142.275,299.979z"/>
			<path style="fill:#407BFF;" d="M188.802,318.045c-0.781,0-1.627-0.134-2.228-0.254c-0.07-0.014-0.123-0.071-0.133-0.142
				c-0.011-0.071,0.026-0.14,0.089-0.173c0.326-0.167,3.202-1.615,4.051-1.131c0.165,0.093,0.259,0.248,0.272,0.448
				c0.021,0.335-0.088,0.61-0.325,0.817C190.158,317.936,189.506,318.045,188.802,318.045z M187.137,317.553
				c1.565,0.26,2.731,0.191,3.171-0.195c0.156-0.137,0.224-0.314,0.21-0.542c-0.005-0.087-0.036-0.14-0.101-0.177
				C189.949,316.376,188.316,316.993,187.137,317.553z"/>
			<path style="fill:#407BFF;" d="M186.608,317.794c-0.035,0-0.07-0.011-0.099-0.032c-0.048-0.035-0.074-0.094-0.068-0.154
				c0.013-0.127,0.341-3.026,1.928-3.026c0.045,0,0.091,0.002,0.138,0.007c0.459,0.047,0.591,0.279,0.622,0.466
				c0.128,0.801-1.588,2.338-2.453,2.725C186.654,317.79,186.631,317.794,186.608,317.794z M188.375,314.919
				c-1.023,0-1.426,1.684-1.552,2.405c0.884-0.527,2.051-1.735,1.974-2.215c-0.006-0.038-0.025-0.154-0.324-0.185
				C188.44,314.92,188.407,314.919,188.375,314.919z"/>
			<g>
				<path style="fill:#407BFF;" d="M179.014,151.773l-1.701,2.283c-0.132,0.177,0.069,0.423,0.398,0.486l29.831,5.777
					c0.257,0.05,0.489-0.034,0.532-0.191l0.675-2.482c0.047-0.172-0.151-0.363-0.432-0.418l-28.805-5.579
					C179.301,151.609,179.099,151.659,179.014,151.773z"/>
				<path style="opacity:0.3;" d="M179.014,151.773l-1.701,2.283c-0.132,0.177,0.069,0.423,0.398,0.486l29.831,5.777
					c0.257,0.05,0.489-0.034,0.532-0.191l0.675-2.482c0.047-0.172-0.151-0.363-0.432-0.418l-28.805-5.579
					C179.301,151.609,179.099,151.659,179.014,151.773z"/>
			</g>
			<path style="fill:#263238;" d="M182.354,155.725l-0.771-0.149c-0.154-0.03-0.258-0.131-0.231-0.225l0.905-3.219
				c0.026-0.094,0.174-0.147,0.327-0.117l0.771,0.149c0.154,0.03,0.258,0.131,0.231,0.225l-0.905,3.219
				C182.655,155.702,182.507,155.754,182.354,155.725z"/>
			<path style="fill:#263238;" d="M201.835,159.544l-0.771-0.149c-0.154-0.03-0.258-0.131-0.231-0.225l0.905-3.219
				c0.026-0.094,0.174-0.147,0.327-0.117l0.771,0.149c0.154,0.03,0.258,0.131,0.231,0.225l-0.905,3.219
				C202.136,159.521,201.988,159.573,201.835,159.544z"/>
		</g>
		<g>
			<path style="fill:#263238;" d="M159.222,415.501h2.478l7.076-34.878l1.243-6.11l7.72-38.008h29.6l16.039,78.996h2.478
				l-16.343-80.454c-0.116-0.564-0.608-0.966-1.19-0.966h-31.577c-0.573,0-1.073,0.402-1.181,0.966l-6.781,33.384l-1.243,6.101
				L159.222,415.501z"/>
			<path style="fill:#263238;" d="M111.705,415.501h2.478l16.048-78.996h29.591l7.72,38.026l1.234,6.092l7.085,34.878h2.478
				l-8.319-40.987l-1.234-6.083l-6.78-33.384c-0.116-0.564-0.617-0.966-1.19-0.966h-31.577c-0.581,0-1.073,0.402-1.19,0.966
				L111.705,415.501z"/>
			<path style="fill:#407BFF;" d="M211.824,324.87h-86.087c-4.114,0-7.449,3.335-7.449,7.449v0.256c0,1.5,1.216,2.716,2.716,2.716
				h95.552c1.5,0,2.716-1.216,2.716-2.716v-0.256C219.273,328.205,215.938,324.87,211.824,324.87z"/>
		</g>
	</g>
</g>
<g id="Character_1">
	<g>
		<path style="fill:#FF8B7B;" d="M374.039,212.352c2.115,3.888,4.059,7.78,5.928,11.76c1.853,3.98,3.622,8.008,5.252,12.148
			l0.601,1.563l0.298,0.783l0.172,0.466l0.251,0.784c0.578,2.1,0.417,3.797,0.179,5.274c-0.524,2.94-1.56,5.194-2.67,7.338
			c-1.123,2.128-2.384,4.07-3.741,5.918c-1.365,1.858-2.772,3.574-4.404,5.272l-4.488-3.207c1.733-3.762,3.529-7.671,4.711-11.387
			c0.586-1.837,1.031-3.712,1.052-5.084c0.011-0.665-0.113-1.192-0.195-1.17c-0.01,0.006-0.013,0.014-0.013,0.014l-0.138-0.285
			l-0.344-0.711l-0.695-1.421c-1.874-3.795-3.823-7.605-5.79-11.413l-5.823-11.458L374.039,212.352z"/>
		<path style="fill:#FF8B7B;" d="M372.205,259.482l-4.23,2.321l6.315,5.393c0,0,2.616-2.584,2.174-5.702L372.205,259.482z"/>
		<polygon style="fill:#FF8B7B;" points="363.951,265.891 369.379,270.103 374.29,267.195 367.975,261.803 		"/>
		<path style="fill:#263238;" d="M341.506,184.442c-0.081,0.518-0.421,0.895-0.76,0.842c-0.339-0.053-0.547-0.516-0.466-1.034
			c0.081-0.518,0.422-0.895,0.76-0.842C341.378,183.461,341.587,183.924,341.506,184.442z"/>
		<path style="fill:#FF5652;" d="M341.132,185.344c0,0-1.646,2.804-3.169,4.043c0.783,0.999,2.402,0.852,2.402,0.852
			L341.132,185.344z"/>
		<path style="fill:#263238;" d="M343.839,181.862c-0.078,0-0.156-0.03-0.216-0.089c-0.967-0.956-2.056-0.746-2.101-0.736
			c-0.165,0.035-0.329-0.072-0.364-0.238c-0.035-0.166,0.07-0.328,0.235-0.364c0.059-0.013,1.452-0.298,2.663,0.899
			c0.121,0.12,0.122,0.315,0.003,0.436C343.998,181.832,343.918,181.862,343.839,181.862z"/>
		<path style="fill:#FF8B7B;" d="M358.794,190.15c-0.932,4.756-1.863,13.471,1.465,16.644c0,0-1.3,4.825-10.138,4.825
			c-9.718,0-4.644-4.824-4.644-4.824c5.304-1.267,5.167-5.202,4.243-8.897L358.794,190.15z"/>
		<path style="fill:#407BFF;" d="M365.508,211.619c-0.127-0.247-0.217-0.533-0.275-0.846c-0.861-4.637-4.483-8.271-9.178-8.448
			c-4.953-0.186-10.528,0.658-13.836,4.541c-1.449,1.701,0.161,4.196,0.161,4.196L365.508,211.619z"/>
		<path style="fill:#407BFF;" d="M380.909,405.687c-0.021-0.008-0.041-0.018-0.061-0.028c-0.153-0.081-0.329-0.263-0.3-0.666
			c0.015-0.213,0.113-0.39,0.29-0.528c0.768-0.599,2.914-0.23,3.005-0.214c0.061,0.012,0.108,0.055,0.123,0.114
			c0.015,0.059-0.006,0.121-0.054,0.159C383.389,404.935,381.673,405.988,380.909,405.687z M383.421,404.5
			c-0.727-0.089-1.937-0.149-2.394,0.208c-0.107,0.083-0.163,0.184-0.172,0.307c-0.021,0.288,0.098,0.351,0.137,0.372
			C381.4,405.605,382.607,405.054,383.421,404.5z"/>
		<path style="fill:#407BFF;" d="M382.731,404.271c-0.745-0.294-1.528-0.771-1.642-1.234c-0.032-0.13-0.039-0.377,0.277-0.572
			c0.204-0.126,0.433-0.158,0.678-0.094c0.941,0.241,1.868,1.886,1.907,1.955c0.027,0.049,0.026,0.11-0.004,0.158
			c-0.03,0.048-0.084,0.075-0.141,0.071C383.536,404.538,383.139,404.432,382.731,404.271z M382.071,402.704
			c-0.035-0.014-0.07-0.025-0.105-0.034c-0.163-0.043-0.307-0.023-0.439,0.058c-0.171,0.106-0.149,0.196-0.14,0.235
			c0.105,0.423,1.307,1.055,2.126,1.238C383.234,403.761,382.645,402.93,382.071,402.704z"/>
		<path style="fill:#407BFF;" d="M331.72,409.934c-0.834,0-1.639-0.115-1.91-0.49c-0.095-0.131-0.169-0.355,0.013-0.673
			c0.102-0.178,0.266-0.299,0.488-0.36c1.082-0.295,3.354,1,3.45,1.056c0.056,0.032,0.085,0.095,0.075,0.159
			c-0.01,0.063-0.059,0.113-0.122,0.126C333.3,409.833,332.497,409.934,331.72,409.934z M330.69,408.672
			c-0.108,0-0.208,0.011-0.298,0.035c-0.142,0.039-0.241,0.109-0.302,0.216c-0.109,0.191-0.07,0.286-0.03,0.341
			c0.303,0.42,1.947,0.429,3.155,0.259C332.612,409.213,331.449,408.672,330.69,408.672z"/>
		<path style="fill:#407BFF;" d="M333.685,409.754c-0.021,0-0.043-0.004-0.063-0.013c-0.785-0.352-2.339-1.758-2.22-2.493
			c0.028-0.172,0.15-0.387,0.574-0.43c0.313-0.029,0.602,0.057,0.854,0.264c0.827,0.679,1.002,2.43,1.009,2.504
			c0.005,0.055-0.019,0.108-0.063,0.14C333.748,409.744,333.716,409.754,333.685,409.754z M332.099,407.118
			c-0.03,0-0.061,0.002-0.092,0.005c-0.277,0.028-0.295,0.137-0.3,0.173c-0.072,0.441,0.985,1.546,1.786,2.027
			c-0.084-0.511-0.315-1.559-0.858-2.005C332.469,407.184,332.294,407.118,332.099,407.118z"/>
		<polygon style="fill:#FF8B7B;" points="340.834,409.6 334.332,409.6 333.685,394.544 340.186,394.544 		"/>
		<polygon style="fill:#FF8B7B;" points="390.91,402.816 384.817,404.215 377.707,389.783 383.8,388.384 		"/>
		<path style="fill:#263238;" d="M383.943,403.516l6.638-3.047c0.242-0.111,0.528-0.039,0.688,0.173l3.578,4.716
			c0.371,0.489,0.18,1.201-0.383,1.448c-2.336,1.024-3.524,1.405-6.443,2.745c-1.796,0.824-8.14,5.295-10.807,5.87
			c-2.609,0.563-3.585-1.987-2.544-2.462c4.666-2.127,7.625-6.66,8.481-8.639C383.305,403.963,383.59,403.678,383.943,403.516z"/>
		<path style="fill:#263238;" d="M334.375,408.847l7.1,0c0.266,0,0.496,0.185,0.553,0.444l1.284,5.779
			c0.133,0.599-0.322,1.167-0.935,1.156c-2.561-0.043-6.262-0.194-9.481-0.194c-3.764,0-7.015,0.205-11.429,0.205
			c-2.669,0-3.41-2.698-2.293-2.943c5.086-1.112,9.239-1.232,13.634-3.942C333.287,409.059,333.814,408.847,334.375,408.847z"/>
		<path style="fill:#263238;" d="M362.309,219.303c0.678,1.747,1.424,3.45,2.176,5.047c1.296,2.762,2.587,5.175,3.526,6.842
			c0.837,1.501,1.384,2.39,1.384,2.39l14.201-7.043c0,0-5.721-16.448-11.695-18.278C365.781,206.4,359.244,211.461,362.309,219.303z
			"/>
		<path style="opacity:0.2;" d="M368.603,220.928c-1.237,0.91-2.12,3.357-2.747,6.232c0.81,1.583,1.556,2.957,2.156,4.03
			c0.837,1.501,1.383,2.393,1.383,2.393l1.629-0.809C370.913,228.97,370.304,224.685,368.603,220.928z"/>
		<path style="fill:#263238;" d="M332.281,229.791c0,2.213,0.053,4.646,0.177,7.328c0.319,7.292,1.115,16.381,2.637,27.673h34.771
			c0.239-5.336-3.115-31.381,2.035-56.532c0,0-5.965-1.195-11.646-1.469c-4.443-0.212-10.876-0.354-14.779,0
			c-5.151,0.478-10,1.805-10,1.805S332.273,212.216,332.281,229.791z"/>
		<path style="opacity:0.2;" d="M333.303,225.104c-0.328,0.692-0.664,1.41-1.001,2.166c-0.009,0.809-0.018,1.646-0.018,2.52
			c0,0.355,0,0.71,0.009,1.074c4.312-2.629,7.151-8.152,7.151-8.152L333.303,225.104z"/>
		<path style="fill:#FF8B7B;" d="M342.737,220.365l-0.97,0.62l-0.881,0.515c-0.59,0.354-1.133,0.604-1.701,0.905
			c-1.115,0.559-2.22,1.077-3.327,1.573c-2.209,0.998-4.465,1.838-6.744,2.638c-4.591,1.529-9.288,2.81-14.499,3.268
			c-0.665,0.038-1.29,0.122-1.988,0.111l-1.024,0.007l-0.511,0.002h-0.255l-0.365-0.023c-1.97-0.141-3.42-0.623-4.747-1.147
			c-2.616-1.063-4.733-2.37-6.766-3.754c-4.015-2.809-7.528-5.863-10.802-9.373l3.478-4.281c3.865,2.146,7.801,4.378,11.654,6.167
			c1.917,0.877,3.859,1.686,5.551,2.117c0.826,0.206,1.607,0.298,1.917,0.244l1.258-0.117c0.443-0.02,0.944-0.139,1.413-0.202
			c3.844-0.632,7.947-1.95,11.93-3.462c2.003-0.752,3.982-1.599,5.937-2.448c0.972-0.434,1.931-0.88,2.853-1.34l1.323-0.684
			l0.607-0.324l0.483-0.279L342.737,220.365z"/>
		<path style="fill:#FF8B7B;" d="M292.811,212.803l-4.065-5.245l-4.116,6.93c0,0,3.793,2.825,6.817,2.316L292.811,212.803z"/>
		<polygon style="fill:#FF8B7B;" points="282.676,205.43 280.516,211.149 284.63,214.489 288.746,207.558 		"/>
		<path style="fill:#263238;" d="M348.613,218.919c-3.368,5.224-21.7,10.929-21.7,10.929l-7.061-14.523
			c0,0,7.798-4.677,15.555-6.795C347.108,205.335,352.655,212.649,348.613,218.919z"/>
		<g>
			<polygon style="opacity:0.2;" points="333.686,394.548 334.019,402.309 340.523,402.309 340.19,394.548 			"/>
			<polygon style="opacity:0.2;" points="383.803,388.387 377.707,389.787 381.376,397.225 387.471,395.826 			"/>
		</g>
		<path style="fill:#FF8B7B;" d="M358.957,186.05c-1.387,6.301-1.879,10.06-5.604,12.823c-5.603,4.155-13,0.012-13.524-6.577
			c-0.471-5.931,1.876-15.239,8.501-16.796C354.857,173.965,360.345,179.748,358.957,186.05z"/>
		<path style="fill:#263238;" d="M364.786,170.608c5.531,0.149,7.54,9.344,5.892,12.081c0,0-1.768,0.989-3.916,4.371
			c-3.263,5.138-7.419,10.703-12.3,10.369c-6.066-0.415-7.007-7.418-6.788-13.929c-3.199-3.02-4.951-3.235-6.524-7.585
			C336.301,162.5,345.621,155.784,364.786,170.608z"/>
		<path style="fill:#FF8B7B;" d="M350.277,185.435c-0.162,1.722-1.018,3.319-2.018,4.348c-1.504,1.548-2.983,0.503-3.174-1.452
			c-0.172-1.759,0.403-4.684,2.206-5.505C349.066,182.018,350.461,183.466,350.277,185.435z"/>
		<path style="fill:#407BFF;" d="M347.427,264.793c0,0-0.75,46.269,5.064,64.409c9.21,28.733,25.029,67.378,25.029,67.378
			l11.882-3.028c0,0-13.096-39.178-17.343-63.381c-3.815-21.743-2.194-47.617-2.194-65.377
			C361.765,264.793,347.427,264.793,347.427,264.793z"/>
		<path style="opacity:0.2;" d="M353.919,272.739c1.23,8.337-3.115,31.549-4.62,39.151c-1.575-14.213-1.867-31.071-1.894-40.275
			C350.592,269.456,353.353,268.898,353.919,272.739z"/>
		<g>
			<path style="fill:#407BFF;" d="M374.351,393.076c-0.049,0.013,2.906,3.762,2.906,3.762l12.982-3.309l-1.444-4.406
				L374.351,393.076z"/>
			<path style="opacity:0.2;fill:#FFFFFF;" d="M374.351,393.076c-0.049,0.013,2.906,3.762,2.906,3.762l12.982-3.309l-1.444-4.406
				L374.351,393.076z"/>
		</g>
		<path style="fill:#407BFF;" d="M335.091,264.793c0,0-9.793,41.506-10.482,61.332c-0.773,22.235,6.987,74.681,6.987,74.681h11.013
			c0,0,1.356-52.854,1.846-73.107c0.534-22.079,13.494-62.906,13.494-62.906H335.091z"/>
		<g>
			<path style="fill:#407BFF;" d="M329.477,396.419c-0.051,0,0.621,4.572,0.621,4.572h13.397l0.362-4.081L329.477,396.419z"/>
			<path style="opacity:0.2;fill:#FFFFFF;" d="M329.477,396.419c-0.051,0,0.621,4.572,0.621,4.572h13.397l0.362-4.081
				L329.477,396.419z"/>
		</g>
	</g>
</g>
</svg>
