<?xml version="1.0" encoding="utf-8"?>
<!-- Generator: Adobe Illustrator 27.5.0, SVG Export Plug-In . SVG Version: 6.00 Build 0)  -->
<svg version="1.1" xmlns="http://www.w3.org/2000/svg" xmlns:xlink="http://www.w3.org/1999/xlink" x="0px" y="0px"
	 viewBox="0 0 500 500" style="enable-background:new 0 0 500 500;" xml:space="preserve">
<g id="BACKGROUND">
	<g>
		<linearGradient id="SVGID_1_" gradientUnits="userSpaceOnUse" x1="250" y1="23.3745" x2="250" y2="447.8595">
			<stop  offset="0" style="stop-color:#B0B0B0"/>
			<stop  offset="1" style="stop-color:#949494"/>
		</linearGradient>
		<rect style="fill:url(#SVGID_1_);" width="500" height="500"/>
		<rect style="fill:#E6E9EC;" width="500" height="500"/>
	</g>
</g>
<g id="OBJECTS">
	<g>
		<defs>
			<rect id="SVGID_00000161591829827178608400000012672735853939201438_" width="500" height="500"/>
		</defs>
		<clipPath id="SVGID_00000010992944605012156190000015113534494344564388_">
			<use xlink:href="#SVGID_00000161591829827178608400000012672735853939201438_"  style="overflow:visible;"/>
		</clipPath>
		<g style="clip-path:url(#SVGID_00000010992944605012156190000015113534494344564388_);">
			
				<linearGradient id="SVGID_00000121984270213966118900000006393523088240608925_" gradientUnits="userSpaceOnUse" x1="482.7696" y1="502.025" x2="570.4111" y2="597.058">
				<stop  offset="0" style="stop-color:#DC5562"/>
				<stop  offset="1" style="stop-color:#9A2067"/>
			</linearGradient>
			<polygon style="fill:url(#SVGID_00000121984270213966118900000006393523088240608925_);" points="387.431,634.033 
				498.064,410.325 602.264,396.21 602.264,560.326 			"/>
			<g>
				
					<linearGradient id="SVGID_00000176756421179114102840000011182441136068997544_" gradientUnits="userSpaceOnUse" x1="185.757" y1="547.3152" x2="250.8203" y2="331.0488">
					<stop  offset="0" style="stop-color:#9A2067"/>
					<stop  offset="1" style="stop-color:#DC5562"/>
				</linearGradient>
				<polygon style="fill:url(#SVGID_00000176756421179114102840000011182441136068997544_);" points="550.016,456.19 
					-73.71,368.698 -105.028,394.216 518.698,481.708 				"/>
				
					<linearGradient id="SVGID_00000117667508517270793510000003169181933840883624_" gradientUnits="userSpaceOnUse" x1="233.3549" y1="429.9547" x2="239.1467" y2="394.4798">
					<stop  offset="0" style="stop-color:#9C263C"/>
					<stop  offset="1" style="stop-color:#75184E"/>
				</linearGradient>
				<polygon style="fill:url(#SVGID_00000117667508517270793510000003169181933840883624_);" points="550.016,456.19 
					-73.71,368.698 -73.71,344.941 550.016,432.432 				"/>
				
					<linearGradient id="SVGID_00000157275833622535427820000016532759306002512290_" gradientUnits="userSpaceOnUse" x1="170.396" y1="542.6938" x2="235.4593" y2="326.4274">
					<stop  offset="0" style="stop-color:#9A2067"/>
					<stop  offset="1" style="stop-color:#DC5562"/>
				</linearGradient>
				<polygon style="fill:url(#SVGID_00000157275833622535427820000016532759306002512290_);" points="519.017,503.548 
					-104.709,416.057 -136.027,441.575 487.699,529.066 				"/>
				
					<linearGradient id="SVGID_00000074435325315896990320000009519777749268961438_" gradientUnits="userSpaceOnUse" x1="202.2645" y1="482.1513" x2="208.7803" y2="436.5408">
					<stop  offset="0" style="stop-color:#9C263C"/>
					<stop  offset="1" style="stop-color:#75184E"/>
				</linearGradient>
				<polygon style="fill:url(#SVGID_00000074435325315896990320000009519777749268961438_);" points="519.017,503.548 
					-104.709,416.057 -104.709,392.299 519.017,479.791 				"/>
				
					<linearGradient id="SVGID_00000127016607369308083170000001044934269202435999_" gradientUnits="userSpaceOnUse" x1="155.2714" y1="538.1436" x2="220.3347" y2="321.8771">
					<stop  offset="0" style="stop-color:#9A2067"/>
					<stop  offset="1" style="stop-color:#DC5562"/>
				</linearGradient>
				<polygon style="fill:url(#SVGID_00000127016607369308083170000001044934269202435999_);" points="487.699,552.824 
					-136.027,465.332 -167.345,490.85 456.381,578.342 				"/>
				
					<linearGradient id="SVGID_00000173149318650500916800000000859569698864126625_" gradientUnits="userSpaceOnUse" x1="173.4258" y1="536.2479" x2="177.0457" y2="477.6056">
					<stop  offset="0" style="stop-color:#9C263C"/>
					<stop  offset="1" style="stop-color:#75184E"/>
				</linearGradient>
				<polygon style="fill:url(#SVGID_00000173149318650500916800000000859569698864126625_);" points="487.699,552.824 
					-136.027,465.332 -136.027,441.575 487.699,529.066 				"/>
				
					<linearGradient id="SVGID_00000158006474420600714100000007718284353254618248_" gradientUnits="userSpaceOnUse" x1="60.7154" y1="687.7765" x2="197.6411" y2="450.6143">
					<stop  offset="0" style="stop-color:#DC5562"/>
					<stop  offset="1" style="stop-color:#9A2067"/>
				</linearGradient>
				<polygon style="fill:url(#SVGID_00000158006474420600714100000007718284353254618248_);" points="456.7,600.182 
					-167.026,512.691 -198.344,538.208 425.382,625.7 				"/>
				
					<linearGradient id="SVGID_00000087408569218229318550000010219484026215954850_" gradientUnits="userSpaceOnUse" x1="139.4517" y1="572.2641" x2="150.2228" y2="516.8514">
					<stop  offset="0" style="stop-color:#A82A36"/>
					<stop  offset="1" style="stop-color:#75184E"/>
				</linearGradient>
				<polygon style="fill:url(#SVGID_00000087408569218229318550000010219484026215954850_);" points="456.7,600.182 
					-167.026,512.691 -167.026,488.933 456.7,576.425 				"/>
				
					<linearGradient id="SVGID_00000075858854333962448800000004373417187989538193_" gradientUnits="userSpaceOnUse" x1="209.0012" y1="554.3082" x2="274.0645" y2="338.0417">
					<stop  offset="0" style="stop-color:#9A2067"/>
					<stop  offset="1" style="stop-color:#DC5562"/>
				</linearGradient>
				<polygon style="fill:url(#SVGID_00000075858854333962448800000004373417187989538193_);" points="602.264,396.21 
					-29.774,315.924 -73.71,344.941 550.016,432.432 				"/>
				
					<linearGradient id="SVGID_00000075149453962579296660000012714373713315156907_" gradientUnits="userSpaceOnUse" x1="160.2396" y1="353.6108" x2="140.6619" y2="397.5747">
					<stop  offset="0" style="stop-color:#A7A7A7"/>
					<stop  offset="1" style="stop-color:#FFFFFF;stop-opacity:0"/>
				</linearGradient>
				<polygon style="fill:url(#SVGID_00000075149453962579296660000012714373713315156907_);" points="165.388,366.981 
					128.415,373.424 113.048,394.896 154.306,400.683 156.099,377.177 181.864,369.74 				"/>
				
					<linearGradient id="SVGID_00000006682592411154864020000005600002563103388558_" gradientUnits="userSpaceOnUse" x1="130.3937" y1="373.2" x2="98.7363" y2="444.2905" gradientTransform="matrix(1.076 0.0107 -0.5421 0.924 186.567 26.8115)">
					<stop  offset="0" style="stop-color:#A7A7A7"/>
					<stop  offset="1" style="stop-color:#FFFFFF;stop-opacity:0"/>
				</linearGradient>
				<polygon style="fill:url(#SVGID_00000006682592411154864020000005600002563103388558_);" points="111.649,394.699 0,430.745 
					85.917,442.797 154.306,400.683 				"/>
			</g>
		</g>
		<g style="clip-path:url(#SVGID_00000010992944605012156190000015113534494344564388_);">
			<g>
				
					<linearGradient id="SVGID_00000010998300827797810920000018296676758886809522_" gradientUnits="userSpaceOnUse" x1="372.2159" y1="277.7271" x2="144.5258" y2="105.167">
					<stop  offset="0" style="stop-color:#A7A7A7"/>
					<stop  offset="1" style="stop-color:#FFFFFF;stop-opacity:0"/>
				</linearGradient>
				<path style="fill:url(#SVGID_00000010998300827797810920000018296676758886809522_);" d="M343.34,363.56l-150.853-18.8V50.002
					c0-3.842,3.203-6.91,7.042-6.743l137.354,5.95c3.611,0.156,6.457,3.129,6.457,6.743V363.56z"/>
				<path style="fill:#FFFFFF;" d="M346.936,363.46l-150.853-18.8V48.242c0-2.938,2.449-5.283,5.383-5.155l140.533,6.088
					c2.761,0.12,4.937,2.392,4.937,5.155V363.46z"/>
				<g>
					<defs>
						<polygon id="SVGID_00000038385171168553961500000009818255105772611766_" points="336.873,350.708 205.391,334.733 
							205.391,52.648 336.873,58.692 						"/>
					</defs>
					<clipPath id="SVGID_00000183210567424419860520000018056527164971059639_">
						<use xlink:href="#SVGID_00000038385171168553961500000009818255105772611766_"  style="overflow:visible;"/>
					</clipPath>
					<polygon style="clip-path:url(#SVGID_00000183210567424419860520000018056527164971059639_);fill:#9BD0EA;" points="
						336.873,350.708 205.391,334.733 205.391,52.648 336.873,58.692 					"/>
					<g style="clip-path:url(#SVGID_00000183210567424419860520000018056527164971059639_);">
						
							<linearGradient id="SVGID_00000006675112867410557250000012228174254610140833_" gradientUnits="userSpaceOnUse" x1="257.7965" y1="347.2852" x2="358.343" y2="142.8218" gradientTransform="matrix(1.2007 0.1247 0.1247 1.2007 -85.8555 -64.4509)">
							<stop  offset="0" style="stop-color:#FFFFFF"/>
							<stop  offset="1" style="stop-color:#FFFFFF;stop-opacity:0"/>
						</linearGradient>
						<polygon style="opacity:0.33;fill:url(#SVGID_00000006675112867410557250000012228174254610140833_);" points="
							227.697,407.044 208.397,385.29 389.194,155.213 410.204,177.052 						"/>
					</g>
					<g style="clip-path:url(#SVGID_00000183210567424419860520000018056527164971059639_);">
						
							<linearGradient id="SVGID_00000151502156239790120570000015727446764838061984_" gradientUnits="userSpaceOnUse" x1="219.166" y1="282.2392" x2="327.3285" y2="62.2884" gradientTransform="matrix(1.2007 0.1247 0.1247 1.2007 -85.8555 -64.4509)">
							<stop  offset="0" style="stop-color:#FFFFFF"/>
							<stop  offset="1" style="stop-color:#FFFFFF;stop-opacity:0"/>
						</linearGradient>
						<polygon style="opacity:0.33;fill:url(#SVGID_00000151502156239790120570000015727446764838061984_);" points="
							192.642,338.522 139.522,275.597 320.319,41.52 375.148,108.531 						"/>
					</g>
					
						<linearGradient id="SVGID_00000158716252625180775550000000669289703370860214_" gradientUnits="userSpaceOnUse" x1="262.8538" y1="71.4233" x2="281.9791" y2="349.34">
						<stop  offset="0" style="stop-color:#FFFFFF"/>
						<stop  offset="1" style="stop-color:#FFFFFF;stop-opacity:0"/>
					</linearGradient>
					
						<polygon style="opacity:0.61;clip-path:url(#SVGID_00000183210567424419860520000018056527164971059639_);fill:url(#SVGID_00000158716252625180775550000000669289703370860214_);" points="
						336.873,340.707 205.391,324.732 205.391,52.648 336.873,58.692 					"/>
					
						<linearGradient id="SVGID_00000173125588596744731440000008860009872688842121_" gradientUnits="userSpaceOnUse" x1="80.6861" y1="281.6482" x2="239.2219" y2="166.0801">
						<stop  offset="0" style="stop-color:#FFFFFF"/>
						<stop  offset="1" style="stop-color:#FFFFFF;stop-opacity:0"/>
					</linearGradient>
					
						<polygon style="opacity:0.61;clip-path:url(#SVGID_00000183210567424419860520000018056527164971059639_);fill:url(#SVGID_00000173125588596744731440000008860009872688842121_);" points="
						188.898,49.571 188.898,339.333 208.447,341.708 208.447,50.47 					"/>
					<g style="clip-path:url(#SVGID_00000183210567424419860520000018056527164971059639_);">
						<path style="fill:#BAC7DF;" d="M216.738,199.705l-0.001,0c-0.821-0.067-1.454-0.754-1.454-1.578V160.87
							c0-0.918,0.779-1.644,1.695-1.579l0.001,0c0.829,0.059,1.471,0.748,1.471,1.579v37.258
							C218.45,199.053,217.66,199.781,216.738,199.705z"/>
						<path style="fill:#FFFFFF;" d="M215.992,198.061L215.992,198.061c-0.822-0.067-1.454-0.753-1.454-1.578v-37.249
							c0-0.918,0.778-1.643,1.694-1.579l0,0c0.829,0.058,1.472,0.748,1.472,1.579v37.249
							C217.704,197.408,216.914,198.136,215.992,198.061z"/>
					</g>
				</g>
			</g>
			<g>
				<g>
					<g>
						
							<linearGradient id="SVGID_00000143591501632691914350000005924201994286502800_" gradientUnits="userSpaceOnUse" x1="268.8729" y1="118.1439" x2="282.6919" y2="197.7919" gradientTransform="matrix(1 -0.0487 0 1 0 12.7399)">
							<stop  offset="0" style="stop-color:#A7A7A7"/>
							<stop  offset="1" style="stop-color:#FFFFFF;stop-opacity:0"/>
						</linearGradient>
						<path style="fill:url(#SVGID_00000143591501632691914350000005924201994286502800_);" d="M304.453,119.441l-65.89-5
							c-1.558-0.118-2.822,1.049-2.822,2.608v26.174c0,1.558,1.263,2.917,2.822,3.036l65.89,4.999
							c1.558,0.118,2.822-1.049,2.822-2.607v-26.174C307.275,120.918,306.011,119.559,304.453,119.441z M246.776,121.394
							c-0.391-0.03-0.707-0.37-0.707-0.761c0-0.391,0.317-0.683,0.707-0.654c0.391,0.03,0.707,0.37,0.707,0.761
							C247.483,121.131,247.167,121.424,246.776,121.394z M296.24,125.147c-0.391-0.03-0.708-0.37-0.708-0.761
							s0.317-0.683,0.708-0.654c0.391,0.03,0.707,0.37,0.707,0.761S296.631,125.177,296.24,125.147z"/>
						
							<linearGradient id="SVGID_00000172411392601858957350000001403734238898566786_" gradientUnits="userSpaceOnUse" x1="258.7278" y1="149.0035" x2="278.5389" y2="112.2207" gradientTransform="matrix(1 0.0759 0 1 0 -16.5808)">
							<stop  offset="0" style="stop-color:#9A2067"/>
							<stop  offset="1" style="stop-color:#DC5562"/>
						</linearGradient>
						<path style="fill:url(#SVGID_00000172411392601858957350000001403734238898566786_);" d="M303.434,117.707l-65.89-4.999
							c-1.558-0.118-2.821,1.049-2.821,2.607v26.174c0,1.558,1.263,2.917,2.821,3.036l65.89,4.999
							c1.558,0.118,2.822-1.049,2.822-2.607v-26.174C306.256,119.185,304.992,117.826,303.434,117.707z M245.757,119.66
							c-0.391-0.03-0.707-0.37-0.707-0.761s0.317-0.683,0.707-0.654c0.391,0.03,0.707,0.37,0.707,0.761
							S246.147,119.69,245.757,119.66z M295.221,123.413c-0.391-0.03-0.708-0.37-0.708-0.761s0.317-0.683,0.708-0.654
							c0.391,0.03,0.707,0.37,0.707,0.761S295.612,123.443,295.221,123.413z"/>
						
							<path style="fill:none;stroke:#FFFFFF;stroke-width:0.6686;stroke-linecap:round;stroke-linejoin:round;stroke-miterlimit:10;" d="
							M237.544,142.66c-0.527-0.04-0.956-0.502-0.956-1.029v-26.174c0-0.527,0.429-0.924,0.956-0.884l65.89,4.999
							c0.527,0.04,0.956,0.502,0.956,1.029v26.174c0,0.527-0.429,0.924-0.956,0.884L237.544,142.66z"/>
					</g>
					<g>
						<g>
							
								<polyline style="fill:none;stroke:#FFFFFF;stroke-width:0.4662;stroke-linecap:round;stroke-linejoin:round;stroke-miterlimit:10;" points="
								245.652,118.82 270.519,89.159 295.227,122.375 							"/>
							<path style="fill:#FFFFFF;" d="M272.14,89.642c0,0.873-0.708,1.528-1.581,1.461c-0.873-0.066-1.581-0.828-1.581-1.701
								c0-0.873,0.708-1.528,1.581-1.461C271.432,88.007,272.14,88.769,272.14,89.642z"/>
						</g>
					</g>
				</g>
			</g>
		</g>
		<g style="clip-path:url(#SVGID_00000010992944605012156190000015113534494344564388_);">
			<g>
				<g>
					
						<linearGradient id="SVGID_00000063625285176488858570000004740669841325897645_" gradientUnits="userSpaceOnUse" x1="102.3713" y1="261.9449" x2="111.176" y2="287.6404" gradientTransform="matrix(0.9445 -0.0555 0.0555 1.0555 -11.2112 -11.2112)">
						<stop  offset="0" style="stop-color:#7D4C3F"/>
						<stop  offset="1" style="stop-color:#5E2924"/>
					</linearGradient>
					<path style="fill:url(#SVGID_00000063625285176488858570000004740669841325897645_);" d="M90.947,307.403l35.468-2.085
						c3.579-0.21,6.295-3.898,6.07-8.178l-1.993-37.888c-0.09-1.719-1.4-3.031-2.925-2.941l-38.86,2.284
						c-1.525,0.09-2.803,1.554-2.855,3.281l-1.15,38.073C84.574,304.25,87.368,307.613,90.947,307.403z"/>
					
						<linearGradient id="SVGID_00000073715281015810625130000000138704258620696749_" gradientUnits="userSpaceOnUse" x1="102.7486" y1="282.457" x2="81.8982" y2="279.779" gradientTransform="matrix(0.9445 -0.0555 0.0555 1.0555 -11.2112 -11.2112)">
						<stop  offset="0" style="stop-color:#A7A7A7"/>
						<stop  offset="1" style="stop-color:#FFFFFF;stop-opacity:0"/>
					</linearGradient>
					<path style="fill:url(#SVGID_00000073715281015810625130000000138704258620696749_);" d="M90.947,307.403l35.468-2.085
						c3.579-0.21,6.295-3.898,6.07-8.178l-1.993-37.888c-0.09-1.719-1.4-3.031-2.925-2.941l-38.86,2.284
						c-1.525,0.09-2.803,1.554-2.855,3.281l-1.15,38.073C84.574,304.25,87.368,307.613,90.947,307.403z"/>
				</g>
				
					<linearGradient id="SVGID_00000037680893239900284820000002772704837122477231_" gradientUnits="userSpaceOnUse" x1="106.4691" y1="310.269" x2="138.6512" y2="254.5279" gradientTransform="matrix(0.9445 -0.0555 0.255 1.0438 -71.3416 -7.4649)">
					<stop  offset="0" style="stop-color:#5E2924"/>
					<stop  offset="1" style="stop-color:#7D4C3F"/>
				</linearGradient>
				<path style="fill:url(#SVGID_00000037680893239900284820000002772704837122477231_);" d="M102.659,306.715l35.468-2.085
					c3.579-0.21,6.003-3.605,5.415-7.583l-5.615-37.967c-0.273-1.849-1.844-3.269-3.508-3.171L92.017,258.4
					c-1.664,0.098-2.791,1.676-2.518,3.526l5.615,37.967C95.702,303.871,99.081,306.925,102.659,306.715z"/>
				<path style="fill:#CECEB4;" d="M91.33,274.306l25.658,4.139l22.771-6.985l-1.39-9.398c-0.321-2.171-1.73-3.863-3.148-3.78
					l-43.295,2.545c-1.418,0.083-2.306,1.911-1.985,4.082L91.33,274.306z"/>
				<g>
					<path style="fill:#683130;" d="M102.908,261.876l-1.437-0.556c0.372-0.772,2.609-8.429,3.496-9.709
						c1.32-1.906,15.507-2.588,17.606-1.26c1.608,1.016,3.776,7.369,4.71,9.054l-1.66,0.808c-1.764-3.178-4.143-6.91-4.911-7.395
						c-1.493-0.944-12.29-0.229-13.508,0.635C106.551,254.454,104.298,258.996,102.908,261.876z M111.102,253.85
						C111.102,253.85,111.102,253.85,111.102,253.85L111.102,253.85z"/>
				</g>
				
					<linearGradient id="SVGID_00000012459742913743048660000015254311771406352258_" gradientUnits="userSpaceOnUse" x1="112.6541" y1="282.4258" x2="130.429" y2="251.6387" gradientTransform="matrix(0.9445 -0.0555 0.1552 1.0497 -41.6734 -8.941)">
					<stop  offset="0" style="stop-color:#5E2924"/>
					<stop  offset="1" style="stop-color:#7D4C3F"/>
				</linearGradient>
				<path style="fill:url(#SVGID_00000012459742913743048660000015254311771406352258_);" d="M90.975,271.907l25.658,4.139
					l22.771-6.985l-1.39-9.398c-0.321-2.171-1.731-3.863-3.148-3.78l-43.295,2.545c-1.418,0.083-2.307,1.911-1.985,4.082
					L90.975,271.907z"/>
				
					<linearGradient id="SVGID_00000135657112759197371810000009325600842329100729_" gradientUnits="userSpaceOnUse" x1="126.7354" y1="273.0299" x2="121.9073" y2="284.0137" gradientTransform="matrix(0.9445 -0.0555 0.255 1.0438 -71.3416 -7.4649)">
					<stop  offset="0" style="stop-color:#5D3328"/>
					<stop  offset="1" style="stop-color:#3E1713"/>
				</linearGradient>
				<path style="fill:url(#SVGID_00000135657112759197371810000009325600842329100729_);" d="M116.645,284.38l2.581-0.152
					c0.825-0.048,1.384-0.831,1.249-1.749l-1.52-10.274c-0.136-0.917-0.915-1.621-1.74-1.573l-2.582,0.152
					c-0.825,0.049-1.384,0.831-1.249,1.749l1.52,10.274C115.041,283.725,115.82,284.429,116.645,284.38z"/>
			</g>
			
				<linearGradient id="SVGID_00000143600045555428326970000003497505665546677406_" gradientUnits="userSpaceOnUse" x1="86.3828" y1="191.7113" x2="97.5058" y2="204.7522">
				<stop  offset="0" style="stop-color:#524F7D"/>
				<stop  offset="1" style="stop-color:#30355E"/>
			</linearGradient>
			<path style="fill:url(#SVGID_00000143600045555428326970000003497505665546677406_);" d="M108.766,172.476
				c-6.096,5.306-9.88,14.855-11.141,22.963c-1.261,8.108-1.982,24.414-2.162,30.045s0.36,9.054,1.982,15.36
				c1.622,6.306,13.352,25.607,13.352,25.607s6.468-8.49,6.468-9.21s-3.604-13.45-5.766-18.346
				c-2.162-4.897-2.703-10.122-2.703-10.122s3.243-17.297,4.685-27.567c1.441-10.27,2.913-21.019-0.901-24.874
				C108.766,172.476,108.766,172.476,108.766,172.476z"/>
			
				<linearGradient id="SVGID_00000052072738360779230410000003526956519546927512_" gradientUnits="userSpaceOnUse" x1="110.8232" y1="399.692" x2="122.5172" y2="399.692">
				<stop  offset="0" style="stop-color:#E0A389"/>
				<stop  offset="1" style="stop-color:#EDBCAE"/>
			</linearGradient>
			<path style="fill:url(#SVGID_00000052072738360779230410000003526956519546927512_);" d="M122.517,400.389
				c-0.696-0.366-1.226-0.742-1.405-1.092c-0.205-0.403,0.219-6.311,0.219-6.311l-9.51-0.919l-0.998,15.253h11.447
				C122.234,404.941,122.315,402.599,122.517,400.389z"/>
			
				<linearGradient id="SVGID_00000047771437169753702710000016860341675803515034_" gradientUnits="userSpaceOnUse" x1="122.754" y1="396.5486" x2="117.085" y2="409.2788">
				<stop  offset="0" style="stop-color:#36345D"/>
				<stop  offset="1" style="stop-color:#1B1F3E"/>
			</linearGradient>
			<path style="fill:url(#SVGID_00000047771437169753702710000016860341675803515034_);" d="M120.786,398.609
				c2.175,0.934,2.119,1.175,4.554,1.649c1.537,0.299,2.239,0.005,4.261,1.421c2.151,1.505-0.24,3.949-1.133,4.59
				c-2.302,1.653-9.165,3.811-11.161,3.811c-1.37,0-7.36-0.527-7.577-1.497c-0.46-2.062,0.938-9.03,1.092-9.648
				C110.759,398.385,118.936,397.815,120.786,398.609z"/>
			
				<linearGradient id="SVGID_00000127036842882519577980000004053671019197858487_" gradientUnits="userSpaceOnUse" x1="164.3668" y1="359.5024" x2="176.0608" y2="359.5024">
				<stop  offset="0" style="stop-color:#E0A389"/>
				<stop  offset="1" style="stop-color:#EDBCAE"/>
			</linearGradient>
			<path style="fill:url(#SVGID_00000127036842882519577980000004053671019197858487_);" d="M176.061,360.199
				c-0.696-0.366-1.226-0.742-1.405-1.092c-0.205-0.403,0.219-6.311,0.219-6.311l-9.51-0.919l-0.998,15.253h11.447
				C175.778,364.751,175.858,362.409,176.061,360.199z"/>
			
				<linearGradient id="SVGID_00000033353084145401325560000015163246987824711305_" gradientUnits="userSpaceOnUse" x1="113.2674" y1="310.1051" x2="98.6141" y2="279.3033">
				<stop  offset="0" style="stop-color:#36345D"/>
				<stop  offset="1" style="stop-color:#1B1F3E"/>
			</linearGradient>
			<path style="fill:url(#SVGID_00000033353084145401325560000015163246987824711305_);" d="M134.224,264.907
				c0.305,4.974,4.74,8.699,4.982,13.677c0,0-2.923,1.541-3.111,4.295c-1.839,26.93-8.007,53.151-10.533,79.895
				c-1.371,14.521-3.362,32.245-3.362,32.245c-3.696-0.247-7.595-0.371-11.29-0.618c-0.479-7.923-1.712-16.301-2.025-24.831
				c-0.321-8.734,0.275-17.628-0.335-26.357c-0.597-8.538-0.745-15.122-1.369-23.042c-0.986-12.512-2.02-25.054-2.34-33.781
				c-0.617-16.833,1.576-26.156,1.576-26.156C117.544,262.03,123.105,262.965,134.224,264.907z"/>
			
				<linearGradient id="SVGID_00000083069925357508438760000009301363915422487193_" gradientUnits="userSpaceOnUse" x1="128.2191" y1="166.0496" x2="134.7173" y2="143.7449">
				<stop  offset="0" style="stop-color:#E0A389"/>
				<stop  offset="1" style="stop-color:#EDBCAE"/>
			</linearGradient>
			<path style="fill:url(#SVGID_00000083069925357508438760000009301363915422487193_);" d="M138.755,134.371
				c0,0-0.128,8.861,0.258,10.813c0.386,1.953-0.166,5.775-0.474,8.329c-0.308,2.554-1.446,4.496-2.475,4.684
				c0,0,1.408,7.127,1.958,10.416c0,0-9.399,2.802-18.099,0.877c0,0,0.92-3.226,0.044-9.405c0,0,2.553-16.476,8.387-21.051
				C134.188,134.459,138.755,134.371,138.755,134.371z"/>
			
				<linearGradient id="SVGID_00000095337818388374202080000014261203874471103123_" gradientUnits="userSpaceOnUse" x1="123.2048" y1="150.9407" x2="124.3047" y2="127.404">
				<stop  offset="0" style="stop-color:#40291A"/>
				<stop  offset="1" style="stop-color:#5A2A14"/>
			</linearGradient>
			<path style="fill:url(#SVGID_00000095337818388374202080000014261203874471103123_);" d="M138.066,136.759
				c1.61-0.48,1.389-5.426-0.415-7.71c-3.019-3.823-8.516-5.992-13.823-5.131c-5.307,0.861-11.549,4.625-12.833,7.466
				c-1.283,2.841-2.07,4.059-2.413,8.153c-0.343,4.094,1.516,10.233,5.169,13.185c3.653,2.951,4.997,5.285,6.217,7.363
				c0.742,1.264,6.444,2.825,10.959-1.891c0,0,3.354-5.469,3.998-7.138c0,0-2.907-3.735-1.192-7.134
				c0.806-1.597,2.345-0.007,2.671,2.05c0.326,2.057,0.588,3.633,0.588,3.633c0.366-0.463,0.549-0.695,0.916-1.159
				c0,0,0.197-4.701-0.016-6.862C137.679,139.424,138.066,136.759,138.066,136.759z"/>
			
				<linearGradient id="SVGID_00000044179904187031296970000011657252809958570904_" gradientUnits="userSpaceOnUse" x1="156.3163" y1="289.6254" x2="141.6631" y2="258.8236">
				<stop  offset="0" style="stop-color:#36345D"/>
				<stop  offset="1" style="stop-color:#1B1F3E"/>
			</linearGradient>
			<path style="fill:url(#SVGID_00000044179904187031296970000011657252809958570904_);" d="M151.575,261.58
				c-6.722,1.508-15.491-1.851-22.161-0.103c-2.19,3.463-6.918,3.75-6.897,3.887c2.292,14.504,22.976,26.336,32.64,35.339
				c1.902,1.772,4.808,6.125,5.207,7.915c0.531,2.387,1.243,17.699,1.737,28.893c0.653,14.798,1.211,16.302,1.211,16.302
				c3.696,0.248,8.269-0.24,12.305-0.24c3.334-19.407,4.217-30.406,6.46-47.358c0.585-4.419,0.903-9.409-0.955-13.86
				C176.061,280.227,158.387,265.82,151.575,261.58z"/>
			
				<linearGradient id="SVGID_00000073683950741347966180000013017482217921863557_" gradientUnits="userSpaceOnUse" x1="118.6383" y1="167.6251" x2="141.665" y2="167.6251">
				<stop  offset="0" style="stop-color:#524F7D"/>
				<stop  offset="1" style="stop-color:#30355E"/>
			</linearGradient>
			<path style="fill:url(#SVGID_00000073683950741347966180000013017482217921863557_);" d="M118.642,169.839
				c0,0,16.648-0.257,23.023,0.831c0,0-0.373-2.202-1.353-3.48c0,0-9.455-4.123-20.213-2.002
				C120.099,165.187,118.558,167.173,118.642,169.839z"/>
			
				<linearGradient id="SVGID_00000124882538258391612760000017764512381769026948_" gradientUnits="userSpaceOnUse" x1="149.1316" y1="170.5228" x2="114.0379" y2="268.2603">
				<stop  offset="0" style="stop-color:#524F7D"/>
				<stop  offset="1" style="stop-color:#30355E"/>
			</linearGradient>
			<path style="fill:url(#SVGID_00000124882538258391612760000017764512381769026948_);" d="M119.837,169.003l-11.07,3.474
				c0,0-4.077,3.719-5.03,11.187c-1.42,11.135-1.322,27.618-1.262,32.791c0.135,11.61,0.599,19.947-0.212,29.907
				c-0.812,9.961-0.434,20.09-0.434,20.09s7.258-0.807,23.513,1.444c16.255,2.25,31.56-4.132,31.56-4.132s-0.888-26.41-2.299-45.874
				c-1.41-19.464-1.546-20.359-1.546-20.359c-0.683-11.675-2.712-14.356-3.734-26.035c-2.242-0.714-6.278-2.673-10.179-2.673
				C132.698,167.548,121.534,168.171,119.837,169.003z"/>
			
				<radialGradient id="SVGID_00000044899661228145491380000003423609891574554018_" cx="171.7286" cy="209.602" r="40.4256" gradientTransform="matrix(1 0 0 1.4326 0 -90.6843)" gradientUnits="userSpaceOnUse">
				<stop  offset="0" style="stop-color:#8289A7"/>
				<stop  offset="0.1682" style="stop-color:#868DAA;stop-opacity:0.8318"/>
				<stop  offset="0.3498" style="stop-color:#9399B3;stop-opacity:0.6502"/>
				<stop  offset="0.5375" style="stop-color:#A9AEC2;stop-opacity:0.4625"/>
				<stop  offset="0.7296" style="stop-color:#C7CAD8;stop-opacity:0.2704"/>
				<stop  offset="0.9231" style="stop-color:#EEEFF3;stop-opacity:0.0769"/>
				<stop  offset="1" style="stop-color:#FFFFFF;stop-opacity:0"/>
			</radialGradient>
			<path style="fill:url(#SVGID_00000044899661228145491380000003423609891574554018_);" d="M154.603,217.888
				c-1.41-19.464-1.546-20.359-1.546-20.359c-0.683-11.675-2.712-14.356-3.734-26.035c-2.242-0.714-6.278-2.673-10.179-2.673
				c-6.447-1.273-17.61-0.651-19.308,0.181l-2.718,0.853c-0.484,32.366,0.666,64.735,0.33,97.103c2.35,0.229,4.97,0.532,7.892,0.937
				c16.255,2.251,31.56-4.132,31.56-4.132S156.014,237.352,154.603,217.888z"/>
			
				<linearGradient id="SVGID_00000020372882753955776150000002305063468462313143_" gradientUnits="userSpaceOnUse" x1="163.0223" y1="364.1071" x2="184.6109" y2="364.1071">
				<stop  offset="0" style="stop-color:#36345D"/>
				<stop  offset="1" style="stop-color:#1B1F3E"/>
			</linearGradient>
			<path style="fill:url(#SVGID_00000020372882753955776150000002305063468462313143_);" d="M184.509,368.114
				c-0.05,0.11-0.11,0.21-0.19,0.3c-0.96,1.17-3.09,1.42-4.59,1.6c-3.25,0.38-9.56-0.41-12.4-1.07c-2.18-0.51-3.33-1.25-3.78-1.61
				l-0.01-0.01c-0.16-0.12-0.23-0.2-0.23-0.2s0-0.02,0.01-0.07c0.02-0.17-0.292-0.259-0.296-0.894
				c-0.011-1.586,1.055-2.423,1.344-3.94c0.289-1.516,0.468-2.942,0.528-3.172c-0.07-0.55,7.584-1.423,9.434-0.623
				c2.18,0.93,1.748,0.948,3.838,2.738c2.1,1.79,2.509,1.792,4.599,3.111C183.996,365.043,184.929,367.284,184.509,368.114z"/>
			
				<linearGradient id="SVGID_00000110444952274187220890000018293680135136692352_" gradientUnits="userSpaceOnUse" x1="123.9495" y1="299.4384" x2="129.6474" y2="308.6729" gradientTransform="matrix(-0.2912 -0.9567 0.9567 -0.2912 -41.6452 391.5929)">
				<stop  offset="0" style="stop-color:#E0A389"/>
				<stop  offset="1" style="stop-color:#EDBCAE"/>
			</linearGradient>
			<path style="fill:url(#SVGID_00000110444952274187220890000018293680135136692352_);" d="M214.406,174.892v-2.391
				c-1.58,0.074-2.425,0.456-3.29,4.221c-0.25,1.088-1.501,2.343-2.858,4.367c-2.308,3.444-4.991,5.303-10.64,8.008
				c-1.797,0.86-3.884,1.97-6.034,3.169c2.088,2.193,4.131,4.43,6.121,6.717c6.678-4.492,14.019-9.853,16.995-10.615
				c1.061-0.272,4.867-2.282,4.867-2.282c1.018-0.64,2.584-2.399,2.763-2.85c0.433-1.091-0.756-1.832-0.756-1.832
				s1.274-1.458,0.867-2.352c-0.407-0.894-1.019-0.956-1.019-0.956s0.221-0.736-0.193-1.764c-0.545-1.355-1.549-0.738-1.549-0.738
				s0.787-1.551-0.397-2.215c-1.184-0.664-2.721,0.082-2.721,0.082S214.71,174.454,214.406,174.892z"/>
			
				<linearGradient id="SVGID_00000062899547303563295240000008824273871727985066_" gradientUnits="userSpaceOnUse" x1="146.9593" y1="196.6956" x2="160.9442" y2="295.3675" gradientTransform="matrix(0.6553 -0.7554 0.7554 0.6553 -105.4511 146.8022)">
				<stop  offset="0" style="stop-color:#524F7D"/>
				<stop  offset="1" style="stop-color:#30355E"/>
			</linearGradient>
			<path style="fill:url(#SVGID_00000062899547303563295240000008824273871727985066_);" d="M139.661,172.448
				c-3.563,5.73-2.483,13.913,3.993,18.509c6.476,4.597,21.449,13.066,24.993,14.865c1.75,0.888,6.212,4.159,12.84,3.633
				c3.554-0.282,9.429-2.785,12.038-4.599c5.156-3.585,15.595-10.995,15.595-10.995s-0.907-4.963-2.302-7.561
				c-1.395-2.598-1.395-2.598-1.395-2.598s-11.829,6.273-18.56,8.13c-4.226,1.166-7.651,1.239-7.651,1.239
				c-2.81-2.693-22.619-15.671-27.571-19.966C146.69,168.809,140.861,170.517,139.661,172.448z"/>
			
				<linearGradient id="SVGID_00000155140559638957182670000006783467996594611096_" gradientUnits="userSpaceOnUse" x1="179.3657" y1="374.939" x2="173.5593" y2="367.1071">
				<stop  offset="0" style="stop-color:#36345D"/>
				<stop  offset="1" style="stop-color:#1B1F3E"/>
			</linearGradient>
			<path style="fill:url(#SVGID_00000155140559638957182670000006783467996594611096_);" d="M184.509,368.114
				c-0.05,0.11-0.11,0.21-0.19,0.3c-0.96,1.17-3.09,1.42-4.59,1.6c-3.25,0.38-9.56-0.41-12.4-1.07c-2.18-0.51-3.33-1.25-3.78-1.61
				l-0.01-0.01c-0.08-0.09-0.16-0.18-0.22-0.27c-0.44-0.59-0.39-0.95,0.15-1.26c0.31-0.17,0.79-0.33,1.43-0.5
				c1.89-0.52,4.09,0.41,7.67,1.02C176.109,366.914,180.489,366.924,184.509,368.114z"/>
		</g>
	</g>
</g>
<g id="TEXTS">
	<g>
		
			<text transform="matrix(1 0.0759 0 1 230.8409 135.8145)" style="fill:#FFFFFF; font-family:'BebasNeueBold'; font-size:18.0313px;">NEXT STEP</text>
	</g>
</g>
</svg>
